<?xml version="1.0" standalone="no"?>
<!DOCTYPE svg PUBLIC "-//W3C//DTD SVG 20010904//EN"
 "http://www.w3.org/TR/2001/REC-SVG-20010904/DTD/svg10.dtd">
<svg version="1.0" xmlns="http://www.w3.org/2000/svg"
 width="449.000000pt" height="97.000000pt" viewBox="0 0 449.000000 97.000000"
 preserveAspectRatio="xMidYMid meet">

<g transform="translate(0.000000,97.000000) scale(0.100000,-0.100000)"
fill="#000000" stroke="none">
<path d="M438 623 c-14 -3 -18 -15 -18 -52 0 -26 5 -52 11 -58 6 -6 9 -28 7
-49 -3 -37 -5 -39 -40 -42 l-38 -3 0 50 c0 28 5 51 10 51 6 0 10 23 10 50 l0
50 -34 0 -33 0 -7 -167 c-4 -93 -9 -194 -13 -225 l-6 -58 131 0 c74 0 133 4
137 10 3 5 11 73 17 150 l12 140 83 0 83 0 0 58 c0 90 -6 102 -50 102 -72 0
-100 -10 -100 -36 0 -15 -6 -24 -15 -24 -9 0 -15 9 -15 25 0 22 -4 25 -37 25
-21 0 -47 2 -58 4 -11 2 -28 2 -37 -1z"/>
<path d="M1130 563 c10 -37 28 -105 40 -150 l22 -83 34 0 c32 0 34 2 53 68 12
38 24 83 27 100 10 51 20 46 34 -16 7 -31 19 -78 27 -104 13 -45 16 -48 47
-48 l33 0 37 133 c20 72 39 140 42 150 4 13 -1 17 -25 17 -34 0 -29 11 -66
-145 l-21 -90 -29 118 -29 117 -33 0 c-30 0 -33 -3 -43 -42 -24 -90 -42 -154
-47 -168 -3 -8 -18 35 -32 95 -26 110 -26 110 -58 113 l-32 3 19 -68z"/>
<path d="M2310 480 l0 -150 30 0 30 0 0 65 0 65 65 0 65 0 0 -65 0 -65 30 0
30 0 0 150 0 150 -30 0 -30 0 0 -60 0 -60 -65 0 -65 0 0 60 0 60 -30 0 -30 0
0 -150z"/>
<path d="M1598 541 c-31 -27 -33 -34 -33 -91 0 -57 2 -64 33 -91 24 -22 42
-29 73 -29 58 0 109 31 109 66 0 10 -50 3 -75 -10 -30 -16 -53 -12 -72 12 -23
28 -14 32 72 32 l85 0 0 38 c-1 93 -119 138 -192 73z m120 -34 c29 -23 13 -37
-43 -37 -57 0 -64 5 -42 32 21 28 53 29 85 5z"/>
<path d="M1881 556 c-33 -18 -50 -53 -51 -104 0 -49 13 -79 44 -104 26 -22 84
-23 114 -2 20 14 22 14 22 0 0 -11 10 -16 30 -16 l30 0 0 120 0 120 -30 0
c-20 0 -30 -5 -30 -16 0 -14 -2 -14 -22 0 -27 19 -74 20 -107 2z m111 -53 c23
-20 24 -80 1 -105 -38 -42 -103 -10 -103 50 0 63 58 95 102 55z"/>
<path d="M2140 450 l0 -120 25 0 c24 0 25 2 25 68 0 77 17 112 56 112 20 0 24
5 24 30 0 23 -5 30 -19 30 -10 0 -24 -7 -31 -15 -7 -8 -16 -15 -21 -15 -5 0
-9 7 -9 15 0 9 -9 15 -25 15 l-25 0 0 -120z"/>
<path d="M2659 555 c-28 -15 -59 -70 -59 -104 0 -39 28 -89 59 -105 16 -9 49
-16 72 -16 33 0 47 6 75 34 30 30 34 40 34 86 0 46 -4 56 -34 86 -28 28 -41
34 -77 34 -24 -1 -56 -7 -70 -15z m98 -43 c22 -14 33 -60 22 -89 -12 -33 -26
-43 -61 -43 -31 0 -58 32 -58 70 0 54 55 89 97 62z"/>
<path d="M2892 474 c4 -91 6 -98 32 -120 32 -28 81 -31 114 -8 20 14 22 14 22
0 0 -11 10 -16 30 -16 l30 0 0 120 0 120 -30 0 -30 0 0 -76 c0 -94 -10 -114
-55 -114 -45 0 -55 20 -55 114 l0 76 -31 0 -31 0 4 -96z"/>
<path d="M3195 545 c-46 -45 -28 -86 47 -110 65 -21 75 -30 58 -50 -16 -19
-44 -19 -60 0 -14 17 -70 21 -70 5 0 -6 11 -22 25 -35 19 -20 34 -25 73 -25
58 0 92 26 92 69 0 35 -23 56 -78 71 -45 12 -65 36 -41 51 20 13 36 11 53 -6
17 -17 66 -20 66 -5 0 6 -11 22 -25 35 -18 19 -35 25 -70 25 -35 0 -52 -6 -70
-25z"/>
<path d="M3438 541 c-31 -27 -33 -34 -33 -91 0 -57 2 -64 33 -91 24 -22 42
-29 73 -29 58 0 109 31 109 66 0 10 -50 3 -75 -10 -30 -16 -53 -12 -72 12 -23
28 -14 32 72 32 l85 0 0 38 c-1 93 -119 138 -192 73z m120 -34 c29 -23 13 -37
-43 -37 -57 0 -64 5 -42 32 21 28 53 29 85 5z"/>
</g>
</svg>
