<?xml version="1.0" standalone="no"?>
<!DOCTYPE svg PUBLIC "-//W3C//DTD SVG 20010904//EN"
 "http://www.w3.org/TR/2001/REC-SVG-20010904/DTD/svg10.dtd">
<svg version="1.0" xmlns="http://www.w3.org/2000/svg"
 width="461.000000pt" height="438.000000pt" viewBox="0 0 461.000000 438.000000"
 preserveAspectRatio="xMidYMid meet">

<g transform="translate(0.000000,438.000000) scale(0.100000,-0.100000)"
fill="#000000" stroke="none">
<path d="M3653 3874 c-5 -13 19 -41 88 -106 52 -48 102 -93 111 -98 14 -9 36
7 123 87 63 57 105 103 103 112 -3 14 -32 16 -211 19 -186 2 -208 1 -214 -14z"/>
<path d="M2106 3754 c-82 -30 -191 -136 -241 -234 -38 -75 -73 -183 -79 -244
-4 -33 -9 -63 -12 -67 -3 -5 -5 -38 -6 -73 -1 -45 4 -72 15 -90 16 -24 16 -29
1 -63 -22 -52 -41 -120 -48 -168 -7 -50 -20 -95 -37 -126 -7 -13 -14 -26 -14
-29 0 -3 -6 -15 -13 -26 -6 -12 -8 -24 -5 -28 3 -3 2 -6 -4 -6 -5 0 -10 -6
-11 -12 0 -7 -4 -24 -8 -37 -5 -17 -4 -22 4 -17 11 6 5 -20 -15 -74 -4 -8 -5
-21 -4 -28 1 -7 -3 -11 -10 -10 -6 2 -18 -19 -26 -47 -8 -27 -21 -57 -29 -66
-8 -8 -14 -21 -14 -28 0 -7 -5 -9 -12 -5 -7 4 -10 4 -6 -1 4 -4 -2 -24 -14
-43 -21 -34 -21 -35 -2 -28 38 16 54 18 54 7 0 -6 -6 -11 -12 -11 -26 0 17
-20 45 -20 15 0 27 -4 27 -9 0 -5 3 -18 6 -28 6 -15 3 -14 -15 5 -19 19 -24
20 -37 8 -21 -21 -17 -27 14 -24 23 3 27 -1 30 -24 4 -31 -9 -36 -28 -13 -14
17 -50 20 -50 5 0 -5 11 -10 25 -10 13 0 29 -8 34 -17 9 -15 12 -16 20 -4 6
10 25 14 58 13 l48 -2 -30 14 c-30 14 -30 14 -5 16 14 0 39 7 55 15 l30 13
-28 1 c-16 1 -38 -4 -50 -11 -20 -10 -21 -10 -8 5 8 11 9 17 3 17 -11 0 -21
-9 -48 -45 -14 -19 -15 -19 -12 5 2 15 13 30 29 37 15 7 33 20 40 29 12 15 11
16 -11 9 -14 -4 -33 -14 -42 -23 -17 -14 -18 -13 -18 6 0 12 3 23 8 23 4 1 16
3 28 4 24 3 74 34 74 46 0 5 7 9 15 9 8 0 15 -5 15 -11 0 -7 12 -10 29 -7 29
4 29 3 50 -76 25 -97 26 -100 4 -117 -11 -10 -14 -10 -9 -1 4 6 2 12 -3 12 -6
0 -12 -16 -12 -35 -1 -19 -2 -41 -3 -47 -1 -7 18 -17 41 -22 37 -8 42 -12 45
-40 2 -22 8 -30 19 -28 13 2 25 -19 48 -83 17 -47 31 -89 31 -93 0 -4 23 -61
50 -126 28 -65 48 -121 45 -124 -2 -3 0 -10 5 -17 30 -36 70 -161 75 -238 4
-45 12 -131 19 -192 16 -125 16 -132 19 -200 1 -27 6 -60 10 -72 5 -14 4 -23
-1 -23 -5 0 -12 -11 -14 -25 -3 -14 -1 -25 3 -25 13 0 11 -28 -2 -32 -6 -2 -7
-12 -1 -28 5 -14 11 -24 13 -22 2 2 17 -2 34 -8 16 -6 25 -14 20 -18 -6 -4
-11 -17 -13 -29 -2 -18 2 -23 17 -23 18 0 21 6 19 52 -1 59 20 85 53 67 17 -9
19 -5 21 38 0 26 1 54 1 61 -1 15 93 17 102 2 3 -5 2 -10 -2 -10 -5 0 -6 -26
-2 -58 4 -31 8 -68 8 -81 1 -16 5 -21 16 -17 10 3 20 -6 31 -29 9 -19 23 -35
31 -35 12 0 13 3 4 14 -7 8 -9 25 -5 41 6 25 5 27 -17 20 -22 -7 -22 -6 5 15
25 21 28 28 23 64 -3 24 -14 48 -26 58 -18 14 -29 38 -17 38 15 0 66 -24 66
-31 0 -5 11 -9 25 -9 19 0 25 -5 25 -21 0 -12 4 -17 11 -13 6 3 9 20 6 38 -6
42 9 84 25 68 16 -16 28 -15 28 3 0 8 -5 15 -11 15 -5 0 -7 5 -4 10 3 6 0 10
-9 10 -8 0 -17 -6 -19 -12 -3 -8 -6 -6 -6 5 -1 9 4 17 10 17 15 0 39 26 31 34
-8 8 17 26 36 26 7 0 10 -4 7 -10 -3 -5 0 -7 9 -4 14 6 12 27 -5 50 -5 6 -6
14 -2 17 18 19 -89 86 -110 69 -7 -6 -25 -8 -42 -7 -44 6 -78 -5 -66 -19 5 -6
9 -26 9 -43 -1 -38 17 -63 44 -63 10 0 16 -4 13 -10 -3 -5 0 -10 8 -10 20 0
34 -19 42 -55 l7 -30 -26 31 c-14 17 -37 39 -52 49 l-26 17 22 -40 c12 -22 33
-45 45 -50 26 -12 41 -62 18 -62 -7 0 -18 11 -23 24 -9 25 -60 66 -82 66 -7 0
1 -9 18 -19 42 -25 54 -46 14 -23 -27 15 -32 15 -40 2 -7 -11 -10 -4 -10 26 0
34 -4 43 -21 47 -13 4 -18 10 -14 17 6 9 10 9 16 -1 12 -17 11 77 -1 181 -21
178 -21 251 3 340 18 67 26 85 40 84 9 -1 24 -2 32 -3 24 -2 17 -16 -12 -28
l-28 -11 33 -1 c18 -1 41 4 51 11 33 20 51 -5 52 -76 1 -33 4 -50 6 -36 3 14
10 31 15 38 7 8 7 12 0 12 -10 0 -18 29 -29 101 -5 39 10 60 30 40 15 -15 27
-14 27 4 0 8 -7 15 -16 15 -8 0 -12 5 -9 10 11 18 -4 11 -24 -12 l-21 -21 -21
27 c-11 14 -35 34 -52 42 l-31 16 30 13 c26 11 30 10 41 -9 11 -19 12 -19 13
-3 0 10 5 15 11 12 6 -4 8 -13 5 -21 -4 -10 3 -14 22 -14 42 0 50 10 57 70 2
15 -4 30 -16 38 -11 7 -19 19 -19 27 0 17 -36 29 -78 26 -29 -2 -33 0 -28 16
19 67 46 201 46 232 0 42 24 84 37 64 11 -16 69 -30 59 -14 -5 7 -18 16 -31
21 -17 7 -22 14 -18 29 3 12 1 21 -5 21 -6 0 -13 -10 -15 -22 -4 -20 -4 -19
-6 5 -1 18 4 27 14 27 16 0 21 16 6 22 -5 2 -11 23 -13 47 -3 40 0 47 22 58
22 11 20 18 -3 14 -5 -1 -6 3 -2 9 3 5 1 19 -5 30 -6 12 -10 28 -8 36 2 10 19
2 59 -30 55 -43 55 -43 51 -16 -6 41 15 46 32 8 14 -33 14 -33 15 -6 1 30 18
45 33 30 6 -6 4 -15 -6 -25 -14 -14 -14 -16 2 -22 9 -4 31 -9 47 -11 28 -3 29
-3 11 11 -11 8 -23 15 -27 15 -3 0 -5 11 -4 25 3 22 -1 25 -26 25 -16 0 -29
-4 -29 -10 0 -5 -4 -10 -10 -10 -5 0 -10 9 -10 21 0 16 5 20 28 17 21 -2 26 1
24 15 -3 15 4 17 53 13 36 -3 53 -1 49 5 -3 6 -12 8 -19 5 -13 -4 -45 23 -45
38 0 4 -7 14 -15 23 -10 9 -13 23 -9 35 4 15 3 18 -6 13 -10 -6 -11 -1 -6 19
4 15 2 26 -4 26 -5 0 -10 -8 -11 -17 0 -13 -3 -11 -11 7 -6 14 -10 29 -9 33 1
4 -5 18 -14 30 -8 12 -15 36 -15 54 0 17 -5 35 -10 38 -6 4 -10 14 -9 23 2 10
0 35 -4 57 -4 22 -9 60 -13 85 -3 24 -10 53 -15 63 -17 30 -49 235 -54 337
-10 199 -38 266 -164 391 -96 95 -155 125 -234 117 -23 -2 -53 2 -67 9 -32 16
-74 15 -124 -3z m164 -194 c3 -4 33 -21 67 -38 51 -26 67 -41 96 -89 40 -66
77 -154 83 -198 2 -16 7 -47 10 -67 l6 -37 -61 0 c-46 1 -61 4 -61 15 0 8 -4
14 -9 14 -5 0 -11 11 -13 25 -4 21 -1 25 18 25 27 0 32 15 8 24 -23 9 -64 -4
-64 -20 0 -8 -4 -14 -10 -14 -17 0 -50 -43 -50 -66 0 -12 -7 -25 -16 -28 -8
-3 -12 -10 -9 -16 4 -6 11 -8 16 -4 17 10 59 -5 59 -21 0 -24 48 -38 123 -36
60 1 67 -1 67 -18 0 -11 6 -21 13 -24 16 -5 16 -228 -2 -279 -14 -42 -132
-158 -192 -189 -44 -22 -71 -24 -102 -7 -12 6 -35 11 -52 10 -44 -3 -110 55
-100 87 6 21 12 23 61 19 44 -4 57 -1 71 14 23 26 8 48 -48 70 l-44 17 100 0
c69 0 108 -4 125 -14 14 -8 28 -14 33 -15 13 0 7 47 -8 60 -10 9 -15 9 -15 1
0 -13 -92 -15 -118 -2 -9 5 -35 16 -57 26 -34 15 -37 18 -21 27 10 5 23 11 29
12 32 5 35 16 17 54 -10 21 -26 44 -34 52 -9 7 -16 18 -16 26 0 17 -15 25 -34
18 -21 -8 -21 -34 0 -34 9 0 14 -7 12 -17 -2 -11 -12 -18 -27 -18 -18 0 -27
-8 -35 -33 -15 -42 -32 -52 -68 -40 -29 10 -88 73 -88 94 0 7 -11 22 -25 35
-28 27 -32 41 -9 32 14 -5 14 -3 3 15 -21 34 0 45 83 43 76 -1 116 11 89 28
-12 7 -11 12 1 29 14 21 14 21 31 2 9 -11 24 -20 32 -20 18 0 20 -26 3 -33
-10 -3 -9 -9 4 -22 21 -23 52 -13 45 14 -3 11 3 28 15 40 10 12 14 21 8 21 -5
0 -10 18 -10 41 0 68 -57 108 -177 126 -24 3 -43 9 -43 13 0 4 16 20 35 36 52
41 65 65 56 105 -12 54 2 76 66 104 32 14 65 29 73 33 15 9 51 4 60 -8z m-205
-360 c3 -5 -3 -10 -15 -10 -12 0 -18 5 -15 10 3 6 10 10 15 10 5 0 12 -4 15
-10z m-230 -90 c3 -5 1 -10 -4 -10 -6 0 -11 5 -11 10 0 6 2 10 4 10 3 0 8 -4
11 -10z m631 -36 c-3 -8 -1 -14 5 -14 6 0 7 -5 4 -10 -7 -12 -74 -10 -81 2 -3
4 4 8 15 8 11 0 25 9 31 20 12 22 35 17 26 -6z m122 15 c-12 -7 -24 -7 -35 0
-15 9 -12 10 17 10 29 0 32 -1 18 -10z m-730 -117 c1 -31 4 -82 7 -112 3 -48
2 -46 -10 20 -15 84 -19 182 -7 162 5 -7 9 -38 10 -70z m933 -655 c-13 -13
-31 0 -24 19 4 11 8 12 20 3 9 -8 10 -16 4 -22z m-541 -17 c0 -5 -2 -10 -4
-10 -3 0 -8 5 -11 10 -3 6 -1 10 4 10 6 0 11 -4 11 -10z m26 -39 c6 0 11 -15
11 -31 0 -46 21 -63 61 -49 18 6 32 14 32 18 0 4 12 13 27 20 20 9 28 9 33 0
5 -8 11 -6 19 7 14 25 14 5 0 -34 -7 -19 -16 -29 -22 -26 -9 5 -9 4 0 -6 9 -9
8 -21 -2 -49 -12 -36 -12 -36 16 -37 32 -1 39 12 12 19 -13 3 -12 5 5 6 13 1
33 -10 47 -25 16 -18 25 -22 25 -12 0 7 -5 19 -12 26 -9 9 -6 12 14 12 22 0
27 6 38 48 6 26 16 58 20 72 8 23 8 22 9 -10 1 -27 4 -32 12 -20 8 12 10 11 7
-5 -2 -11 -9 -21 -16 -21 -24 -3 -26 -4 -14 -16 14 -14 16 -42 2 -33 -6 3 -15
-6 -20 -20 -14 -37 -12 -43 6 -17 22 32 36 17 30 -32 -9 -62 -140 -573 -150
-584 -3 -3 -6 46 -7 109 0 89 -3 109 -11 92 -14 -29 -24 -29 -31 -1 -5 19 -8
20 -23 7 -13 -11 -18 -11 -21 -1 -3 6 -11 12 -19 12 -9 0 -12 -5 -8 -12 5 -8
2 -9 -11 -5 -16 7 -17 2 -13 -48 3 -31 1 -58 -3 -60 -4 -3 -10 26 -14 64 -6
57 -3 82 16 140 12 39 20 74 17 76 -3 3 -11 -13 -18 -35 -7 -22 -17 -40 -23
-40 -5 0 -6 -11 -3 -25 4 -14 4 -25 2 -25 -3 0 -26 34 -51 75 -48 76 -62 91
-50 55 4 -11 2 -20 -4 -20 -6 0 -11 10 -12 23 -2 52 -7 69 -41 124 -58 95
-122 220 -99 194 21 -23 21 -23 21 -2 0 12 5 21 11 21 6 0 17 7 25 15 9 8 24
15 34 15 10 0 20 9 23 20 8 29 47 39 123 31z m264 -11 c0 -4 -8 -10 -17 -14
-10 -3 -23 -8 -29 -11 -6 -3 -14 2 -16 13 -4 15 1 18 28 19 19 1 34 -3 34 -7z
m46 -21 c8 -13 -13 -36 -23 -25 -4 4 -1 12 7 17 12 8 10 10 -8 6 -12 -3 -20
-1 -16 4 7 12 31 11 40 -2z m-35 -55 c11 -14 10 -19 -10 -35 -29 -24 -38 -24
-51 0 -8 16 -6 23 12 35 28 20 32 20 49 0z m-558 -1 c3 -5 -8 -8 -24 -9 -15
-1 -26 3 -23 7 6 11 41 12 47 2z m634 -45 c-3 -8 -6 -5 -6 6 -1 11 2 17 5 13
3 -3 4 -12 1 -19z m-707 -34 c0 -8 -4 -14 -9 -14 -6 0 -9 9 -8 19 1 22 17 18
17 -5z m100 5 c0 -6 -9 -8 -20 -4 -13 4 -20 2 -20 -6 0 -7 -3 -10 -6 -6 -3 3
-3 10 1 16 8 14 45 14 45 0z m-77 -82 c-7 -11 -23 12 -23 33 1 12 4 11 15 -4
8 -10 12 -23 8 -29z m106 -7 c4 0 12 5 19 12 9 9 15 9 24 0 9 -9 9 -15 0 -24
-9 -9 -12 -8 -12 8 -1 19 -1 19 -16 -1 -8 -11 -18 -19 -22 -17 -4 1 -8 -9 -10
-23 -3 -22 -6 -24 -18 -14 -22 18 -17 4 23 -71 24 -45 41 -66 47 -60 6 6 14
10 19 10 5 0 1 -7 -7 -16 -14 -14 -13 -20 14 -67 17 -29 35 -51 41 -49 6 1 13
-7 16 -18 6 -23 23 -27 23 -6 0 18 30 30 43 17 7 -7 16 -7 28 -1 11 7 20 7 24
0 3 -5 -3 -10 -14 -10 -13 0 -21 -7 -22 -17 -1 -17 -2 -17 -6 -1 -4 14 -8 16
-24 8 -10 -6 -19 -17 -19 -25 0 -18 -12 -19 -29 -2 -11 10 -13 7 -8 -13 4 -14
9 -53 12 -85 l5 -60 -29 60 c-23 48 -28 54 -28 32 0 -15 3 -27 7 -27 11 0 21
-43 11 -53 -4 -4 -13 12 -20 35 -7 24 -21 58 -32 76 -18 32 -18 52 1 52 5 0
12 -9 15 -21 4 -11 9 -18 12 -16 10 11 -18 46 -39 49 -18 2 -24 12 -31 46 -4
23 -12 42 -16 42 -5 0 -11 11 -13 25 -5 24 1 29 32 26 12 -2 12 0 2 7 -7 5
-15 15 -16 23 -2 8 -11 32 -21 54 -20 45 -28 88 -14 79 5 -3 9 2 9 11 0 8 6
24 13 35 9 17 13 18 15 5 2 -8 7 -15 11 -15z m-55 -5 c-4 -8 -8 -15 -10 -15
-2 0 -4 7 -4 15 0 8 4 15 10 15 5 0 7 -7 4 -15z m-24 -35 c0 -5 -5 -10 -11
-10 -5 0 -7 5 -4 10 3 6 8 10 11 10 2 0 4 -4 4 -10z m154 -35 c7 -20 -3 -45
-18 -45 -20 0 -27 12 -15 27 7 8 8 13 1 13 -5 0 -13 -7 -16 -16 -3 -8 -10 -12
-16 -9 -7 4 -7 13 0 26 13 23 55 26 64 4z m-182 -37 c-9 -9 -12 -7 -12 12 0
19 3 21 12 12 9 -9 9 -15 0 -24z m228 -8 c0 -5 -4 -10 -10 -10 -5 0 -10 5 -10
10 0 6 5 10 10 10 6 0 10 -4 10 -10z m-10 -30 c8 -5 13 -10 10 -11 -3 0 -15
-2 -27 -5 -16 -3 -23 1 -23 11 0 17 18 19 40 5z m-45 -60 c-3 -5 -11 -10 -16
-10 -6 0 -7 5 -4 10 3 6 11 10 16 10 6 0 7 -4 4 -10z m96 -53 c-10 -25 -35
-25 -64 1 -19 17 -13 28 18 34 34 7 55 -9 46 -35z m340 -70 c-10 -9 -11 -8 -5
6 3 10 9 15 12 12 3 -3 0 -11 -7 -18z m-261 -11 c0 -3 -4 -8 -10 -11 -5 -3
-10 -1 -10 4 0 6 5 11 10 11 6 0 10 -2 10 -4z m270 -36 c0 -5 -4 -10 -10 -10
-5 0 -7 -7 -4 -15 4 -8 1 -15 -5 -15 -6 0 -11 11 -11 25 0 16 6 25 15 25 8 0
15 -4 15 -10z m-151 -19 c24 -21 11 -41 -14 -21 -8 6 -19 9 -25 5 -12 -7 -12
-3 -4 19 8 21 16 20 43 -3z m-129 -20 c-1 -19 -29 -71 -30 -54 0 7 -6 10 -13
8 -6 -3 -17 3 -24 14 -10 15 -8 22 7 39 22 23 60 19 60 -7z m256 -38 c-10 -10
-19 5 -10 18 6 11 8 11 12 0 2 -7 1 -15 -2 -18z m97 -52 c19 -8 27 -17 27 -36
0 -33 -16 -32 -34 4 -9 16 -29 34 -46 39 -16 6 -30 17 -30 25 0 27 15 28 35 3
11 -13 32 -29 48 -35z m-103 29 c0 -5 -5 -10 -11 -10 -5 0 -7 5 -4 10 3 6 8
10 11 10 2 0 4 -4 4 -10z m-171 -9 c2 -1 -2 -8 -9 -16 -6 -8 -9 -19 -5 -25 3
-5 1 -10 -4 -10 -12 0 -14 -67 -5 -158 6 -57 8 -61 29 -56 13 3 27 -1 34 -10
10 -12 9 -14 -11 -9 -18 4 -20 3 -8 -6 13 -10 13 -11 0 -12 -8 -1 -18 -1 -22
0 -5 0 -9 -18 -10 -42 l-1 -42 -6 45 c-5 38 -9 44 -26 42 -19 -3 -19 -3 -2 10
15 12 17 24 11 115 -6 88 -9 100 -20 85 -12 -16 -13 -15 -14 6 0 16 -6 22 -24
22 -15 0 -26 7 -29 20 -6 25 24 28 43 5 15 -18 40 -3 39 24 0 9 -3 11 -5 4 -3
-7 -12 -9 -20 -6 -13 5 -13 7 -2 14 10 7 34 7 67 0z m41 -36 c0 -8 -6 -15 -14
-15 -8 0 -18 -9 -21 -21 -5 -14 -10 -18 -17 -11 -7 7 -4 19 7 36 19 28 45 35
45 11z m191 -2 c13 -15 12 -15 -6 -6 -11 6 -27 13 -35 16 -10 4 -8 6 6 6 12 1
28 -6 35 -16z m-444 -35 c-3 -8 -6 -5 -6 6 -1 11 2 17 5 13 3 -3 4 -12 1 -19z
m33 -4 c0 -8 -4 -12 -10 -9 -5 3 -10 13 -10 21 0 8 5 12 10 9 6 -3 10 -13 10
-21z m58 14 c7 -7 12 -17 12 -22 0 -6 -5 -4 -10 4 -9 13 -11 13 -20 0 -7 -11
-12 -12 -21 -3 -13 13 -4 33 15 33 6 0 17 -5 24 -12z m272 -23 c0 -8 -5 -15
-11 -15 -8 0 -8 -5 1 -15 9 -11 9 -15 1 -15 -7 0 -9 -4 -6 -10 3 -5 1 -10 -5
-10 -7 0 -10 -7 -6 -15 3 -8 1 -15 -4 -15 -13 0 -13 11 1 66 11 42 29 61 29
29z m-223 -46 c13 -13 -4 -66 -25 -74 -19 -7 -48 65 -30 76 18 12 42 11 55 -2z
m152 -14 c3 -19 3 -19 -17 -2 -18 16 -20 17 -26 1 -3 -9 -1 -24 6 -33 6 -9 1
-6 -13 7 -24 23 -24 23 -4 38 25 19 49 14 54 -11z m48 -62 c-8 -16 -20 -48
-21 -57 -1 -11 -26 -21 -26 -10 0 4 8 16 18 27 12 15 14 21 4 24 -6 3 -10 9
-6 14 6 11 37 12 31 2z m-220 -45 c-3 -8 -6 -5 -6 6 -1 11 2 17 5 13 3 -3 4
-12 1 -19z m113 12 c0 -5 -5 -10 -11 -10 -5 0 -7 5 -4 10 3 6 8 10 11 10 2 0
4 -4 4 -10z m38 -15 c3 -11 0 -15 -7 -10 -6 3 -9 10 -6 15 3 4 0 11 -5 13 -6
3 -5 4 2 3 7 -1 15 -11 16 -21z m-98 -15 c0 -5 -9 -10 -21 -10 -11 0 -17 5
-14 10 3 6 13 10 21 10 8 0 14 -4 14 -10z m135 -31 c11 -17 -1 -21 -15 -4 -8
9 -8 15 -2 15 6 0 14 -5 17 -11z m-10 -29 c3 -5 2 -10 -4 -10 -6 0 -8 -6 -5
-14 3 -8 2 -22 -3 -31 -7 -12 -10 -6 -11 24 -2 39 9 53 23 31z m-88 -102 c-3
-7 -5 -2 -5 12 0 14 2 19 5 13 2 -7 2 -19 0 -25z m53 -13 c0 -8 -4 -15 -10
-15 -5 0 -7 7 -4 15 4 8 8 15 10 15 2 0 4 -7 4 -15z m-90 -19 c0 -3 -4 -8 -10
-11 -5 -3 -10 -1 -10 4 0 6 5 11 10 11 6 0 10 -2 10 -4z m149 -31 c13 0 26 -6
29 -12 2 -7 -1 -13 -8 -13 -6 0 -8 5 -5 11 4 6 -4 9 -21 7 -22 -2 -29 2 -31
17 -2 15 -1 16 5 5 4 -8 18 -15 31 -15z m11 -91 c0 -11 -4 -12 -19 -5 -14 8
-20 7 -25 -4 -3 -8 -1 -17 4 -20 6 -4 10 -1 10 6 0 10 3 10 11 2 6 -6 9 -18 7
-27 -2 -14 -7 -12 -30 8 -34 28 -35 44 -5 55 27 10 47 4 47 -15z m-225 -74 c3
-5 1 -10 -4 -10 -6 0 -11 5 -11 10 0 6 2 10 4 10 3 0 8 -4 11 -10z m236 -52
c10 -18 9 -20 -6 -15 -9 4 -20 7 -25 7 -4 0 -10 11 -12 25 -4 21 -3 23 13 14
10 -5 24 -19 30 -31z m-191 22 c0 -5 -4 -10 -10 -10 -5 0 -12 -11 -16 -25 -7
-28 -19 -32 -28 -9 -3 8 -2 12 4 9 6 -3 10 0 10 7 0 15 19 38 32 38 4 0 8 -4
8 -10z m139 -26 c2 -2 -7 -4 -20 -5 -13 0 -18 -3 -11 -6 6 -2 12 -9 12 -14 0
-4 -6 -6 -14 -3 -9 4 -16 -3 -19 -18 -3 -13 -4 -4 -3 19 1 40 2 42 26 36 14
-3 27 -7 29 -9z m73 -40 c-8 -15 -10 -15 -15 0 -4 9 -2 16 3 16 6 0 11 8 11
18 1 16 2 16 6 0 2 -10 0 -25 -5 -34z"/>
<path d="M2280 3050 c0 -5 7 -10 16 -10 8 0 12 5 9 10 -3 6 -10 10 -16 10 -5
0 -9 -4 -9 -10z"/>
<path d="M2240 2880 c0 -11 48 -25 56 -17 4 3 3 10 -1 16 -8 14 -55 14 -55 1z"/>
<path d="M2450 2058 c0 -20 -20 -25 -20 -5 -1 18 -26 -43 -33 -80 -4 -19 -2
-33 3 -33 6 0 10 -7 10 -15 0 -8 -5 -15 -11 -15 -7 0 -9 -11 -6 -30 4 -16 2
-32 -3 -35 -6 -3 -10 4 -11 17 0 22 -1 22 -9 3 -15 -38 -50 -151 -50 -166 0
-9 11 -14 30 -14 27 0 35 6 31 28 -3 21 42 -7 53 -33 3 -8 4 -2 2 13 -3 24 0
28 15 24 15 -4 19 0 19 21 0 15 18 88 40 162 43 143 45 155 29 128 -13 -24
-29 -23 -29 1 0 10 -7 21 -15 25 -8 3 -15 0 -15 -6 0 -7 -7 -3 -15 8 -13 17
-14 17 -15 2z m44 -63 c19 -20 12 -39 -21 -54 -21 -10 -28 -9 -34 1 -30 46 17
91 55 53z m-44 -99 c0 -7 10 -16 22 -19 18 -5 19 -8 8 -22 -7 -8 -15 -13 -19
-10 -3 3 1 10 8 15 9 5 1 8 -23 8 -46 0 -57 9 -32 28 25 18 36 18 36 0z m0
-95 c0 -5 -9 -19 -19 -32 l-20 -24 -19 21 c-15 16 -18 24 -9 33 13 13 67 15
67 2z"/>
<path d="M2407 1793 c-4 -3 -7 -11 -7 -17 0 -6 5 -5 12 2 6 6 9 14 7 17 -3 3
-9 2 -12 -2z"/>
<path d="M2236 1581 c-3 -5 1 -11 9 -15 15 -6 29 7 18 18 -9 9 -21 8 -27 -3z"/>
<path d="M2257 1361 c-4 -17 -3 -21 5 -13 5 5 8 16 6 23 -3 8 -7 3 -11 -10z"/>
<path d="M3060 2212 c-32 -11 -41 -29 -28 -56 14 -33 36 -33 44 -2 9 36 1 64
-16 58z"/>
<path d="M3023 2115 c3 -11 8 -33 11 -48 4 -15 11 -25 16 -22 16 10 11 38 -11
65 -17 21 -20 22 -16 5z"/>
<path d="M1555 2060 c3 -11 2 -20 -3 -20 -14 0 -52 -36 -52 -49 0 -6 9 -2 20
9 23 23 40 26 40 8 1 -8 6 -6 14 4 7 10 16 15 20 11 3 -4 -1 8 -10 25 -17 35
-39 44 -29 12z"/>
<path d="M2995 2070 c3 -5 8 -10 11 -10 2 0 4 5 4 10 0 6 -5 10 -11 10 -5 0
-7 -4 -4 -10z"/>
<path d="M2950 2052 c0 -4 14 -16 30 -27 37 -25 38 -35 3 -35 -25 0 -26 -1 -8
-14 25 -18 52 -9 60 21 10 43 -1 59 -45 60 -22 1 -40 -1 -40 -5z"/>
<path d="M3140 1983 c0 -102 0 -99 14 -94 6 2 16 4 23 4 7 0 10 4 8 8 -3 4 2
20 10 35 8 16 15 22 15 14 1 -12 3 -12 11 2 13 22 3 60 -23 88 -16 17 -22 19
-29 8 -7 -11 -11 -10 -19 2 -7 10 -10 -10 -10 -67z"/>
<path d="M1616 2031 c-4 -5 -2 -20 3 -33 9 -21 10 -21 10 10 1 32 -3 39 -13
23z"/>
<path d="M2847 2007 c-15 -15 -16 -23 -6 -59 6 -23 26 -57 44 -75 32 -32 54
-83 37 -83 -5 0 -15 12 -22 28 -8 17 -14 22 -17 14 -3 -7 4 -23 15 -35 11 -12
22 -29 25 -37 5 -13 6 -13 6 0 1 8 5 21 10 29 8 12 12 12 25 2 23 -19 34 14
12 38 -11 12 -12 21 -5 28 6 6 6 18 0 36 -6 14 -8 35 -6 47 2 12 0 18 -6 14
-5 -3 -21 5 -35 18 -14 13 -33 30 -43 38 -14 13 -18 13 -34 -3z m90 -189 c-3
-8 -6 -5 -6 6 -1 11 2 17 5 13 3 -3 4 -12 1 -19z"/>
<path d="M1351 2011 c-12 -8 -14 -32 -12 -113 1 -57 7 -109 13 -115 6 -7 8
-26 6 -43 -2 -16 -1 -31 4 -32 5 -2 11 -21 14 -43 l6 -40 -28 28 c-22 21 -29
37 -30 70 -1 47 -21 107 -35 107 -13 0 -11 -14 3 -28 9 -9 9 -12 -1 -12 -8 0
-11 -6 -7 -16 4 -9 2 -22 -4 -29 -12 -15 -2 -95 12 -95 5 0 4 -9 -2 -20 -6
-11 -8 -25 -5 -30 3 -6 1 -10 -6 -10 -9 0 -8 -4 3 -12 16 -14 34 -53 19 -44
-4 3 -14 -26 -21 -64 -7 -38 -16 -67 -21 -65 -10 7 -39 -5 -39 -16 0 -5 9 -9
20 -9 12 0 20 -7 20 -16 0 -14 3 -14 15 -4 13 10 15 9 16 -11 1 -13 0 -31 -1
-39 -1 -8 1 -12 6 -8 4 4 13 0 20 -10 16 -20 19 0 5 26 -5 10 -7 30 -4 45 l6
28 18 -30 c10 -17 23 -31 29 -31 14 0 13 13 -2 29 -11 11 -10 13 5 7 10 -3 31
-6 46 -6 22 0 29 -7 39 -33 14 -40 16 -79 3 -93 -22 -23 -22 -70 0 -98 20 -25
20 -28 5 -45 -9 -10 -13 -21 -9 -25 4 -4 -1 -4 -11 0 -16 6 -18 4 -14 -14 4
-12 2 -24 -3 -27 -4 -3 -6 -12 -3 -20 4 -8 -6 -20 -25 -30 -37 -19 -40 -29 -6
-23 14 3 25 1 25 -6 0 -6 7 -2 15 8 11 15 15 16 19 5 14 -43 15 -44 21 -21 4
12 10 22 14 22 9 0 34 -60 28 -67 -3 -3 3 -14 14 -26 21 -23 26 -58 7 -54 -7
1 -12 -6 -12 -15 1 -13 -9 -19 -42 -24 -24 -3 -47 -11 -50 -16 -4 -6 9 -8 35
-4 22 3 41 1 41 -4 0 -5 9 -12 20 -15 11 -4 20 -15 20 -26 0 -11 -4 -17 -10
-14 -5 3 -10 -1 -10 -9 0 -9 6 -15 13 -13 13 2 14 -47 2 -94 -6 -23 -3 -28 26
-38 18 -6 33 -10 33 -9 23 58 36 112 28 120 -6 6 -14 -8 -22 -37 -17 -62 -23
-51 -9 18 7 33 20 64 32 74 19 18 20 17 15 -10 -5 -23 -3 -25 10 -15 13 11 14
10 4 -9 -15 -28 -16 -83 -1 -83 7 0 8 -7 4 -17 -4 -10 -9 -30 -10 -45 -3 -24
1 -28 21 -28 19 0 24 5 24 25 0 13 12 49 27 80 21 42 31 54 44 50 11 -4 19 0
22 12 3 14 6 12 16 -11 16 -41 23 -28 12 28 -9 49 -2 63 25 48 18 -10 54 -5
54 8 0 4 -12 11 -27 15 -27 7 -26 8 20 23 26 8 47 18 47 22 0 13 -41 19 -67 9
-16 -6 -22 -6 -18 1 3 6 13 10 21 10 8 0 14 5 14 10 0 17 -25 11 -48 -10 -12
-12 -22 -31 -22 -43 -1 -20 -1 -21 -11 -4 -9 15 -6 23 10 41 23 24 38 76 23
76 -13 0 -42 -34 -42 -49 0 -7 -4 -9 -10 -6 -15 9 -12 35 4 35 35 0 71 103 48
136 -11 15 -102 42 -108 33 -16 -26 -24 -3 -19 51 5 60 -2 73 -25 45 -10 -12
-9 -19 2 -37 14 -22 14 -23 -12 -23 -18 0 -26 4 -23 13 3 6 -2 23 -11 37 -9
13 -16 28 -16 32 0 4 5 1 10 -7 5 -8 10 -10 10 -5 0 6 -9 18 -20 28 -12 10
-18 23 -14 29 5 7 17 -1 35 -23 34 -41 36 -33 7 26 -15 28 -30 45 -42 45 -12
0 -16 -5 -12 -15 3 -8 1 -15 -4 -15 -13 0 -22 41 -18 76 2 20 8 29 21 28 10
-1 17 5 17 17 0 24 23 15 39 -14 8 -14 10 -16 6 -4 -3 10 -5 28 -5 40 0 14 -3
18 -8 10 -9 -15 -22 -6 -44 29 -14 22 -15 27 -3 31 14 6 28 -7 37 -33 4 -11 9
-6 17 14 8 20 17 27 29 23 31 -8 37 -9 55 -8 24 1 22 21 -3 21 -34 0 -22 16
26 38 42 17 44 21 25 27 -14 4 -31 1 -46 -9 -23 -15 -24 -15 -18 1 6 15 4 16
-9 5 -9 -7 -19 -24 -22 -37 -4 -14 -13 -25 -20 -25 -8 0 -17 -8 -20 -17 -6
-14 -8 -14 -22 5 -9 13 -26 22 -40 22 -25 0 -26 -5 -7 -72 2 -10 0 -18 -6 -18
-6 0 -15 19 -21 43 -6 23 -18 66 -26 96 -9 30 -14 72 -12 95 3 47 -12 337 -19
348 -2 4 -19 -1 -37 -12 -19 -10 -37 -16 -40 -13 -16 17 -2 -34 27 -99 27 -60
33 -84 31 -128 -1 -30 -6 -56 -11 -57 -4 -2 -6 -24 -4 -49 8 -110 -41 -45 -80
105 -21 80 -30 224 -15 254 5 10 4 17 -2 17 -6 0 -13 -8 -15 -17 -4 -14 -5
-14 -6 3 0 12 6 27 14 34 27 23 16 40 -14 21z m89 -536 c15 -20 22 -76 10 -89
-9 -12 -16 -12 -40 1 -17 8 -30 17 -30 19 0 3 4 3 9 -1 5 -3 12 -1 15 4 4 5
-6 13 -20 18 -26 9 -26 10 -9 27 14 14 15 20 5 26 -9 6 -5 12 16 23 26 14 29
14 33 -1 2 -9 7 -21 11 -27z m-103 -67 c-3 -8 -6 -5 -6 6 -1 11 2 17 5 13 3
-3 4 -12 1 -19z m143 -392 c0 -3 -4 -8 -10 -11 -5 -3 -10 -1 -10 4 0 6 5 11
10 11 6 0 10 -2 10 -4z m264 -212 c3 -8 2 -12 -4 -9 -6 3 -10 10 -10 16 0 14
7 11 14 -7z"/>
<path d="M3027 1953 c-4 -3 -7 -11 -7 -17 0 -6 5 -5 12 2 6 6 9 14 7 17 -3 3
-9 2 -12 -2z"/>
<path d="M1875 1909 c-4 -11 -4 -23 -1 -26 3 -4 2 -11 -4 -18 -6 -7 -6 -24 1
-48 8 -31 7 -39 -11 -57 -12 -12 -19 -24 -16 -28 4 -3 11 -1 17 5 6 6 17 9 24
7 17 -7 28 42 15 66 -9 16 -8 20 4 20 17 0 32 -42 21 -59 -3 -6 -1 -11 4 -11
6 0 11 -7 11 -15 0 -8 4 -15 9 -15 6 0 6 12 -1 30 -6 17 -8 45 -4 63 4 22 3
28 -4 17 -8 -13 -13 -12 -32 8 -19 19 -21 25 -10 42 15 25 15 27 -2 33 -9 4
-17 -2 -21 -14z"/>
<path d="M3216 1908 c-9 -12 -16 -34 -17 -48 0 -14 -3 -19 -6 -12 -2 6 -9 10
-14 6 -5 -3 -9 0 -9 5 0 16 -27 13 -33 -2 -3 -8 -1 -20 3 -27 7 -12 11 -11 25
0 13 11 18 11 24 2 8 -13 26 18 41 71 10 33 6 34 -14 5z"/>
<path d="M3240 1875 c-7 -8 -10 -21 -7 -29 3 -8 -2 -25 -12 -38 l-19 -23 32 2
c43 2 43 2 23 14 -18 10 -18 12 4 35 18 19 19 24 7 24 -9 0 -19 -6 -21 -12 -4
-9 -6 -8 -6 3 -1 8 4 20 11 27 7 7 9 12 6 12 -3 0 -11 -7 -18 -15z"/>
<path d="M2820 1802 c0 -5 6 -9 13 -9 6 0 22 -3 35 -7 25 -8 31 8 6 18 -23 9
-54 7 -54 -2z"/>
<path d="M3120 1795 c0 -2 9 -21 20 -41 19 -33 20 -38 5 -53 -16 -18 -20 -41
-7 -41 13 1 40 26 43 40 4 22 -11 60 -24 60 -7 0 -4 5 6 11 9 6 15 14 12 20
-6 9 -55 13 -55 4z"/>
<path d="M2980 1763 c-20 -7 -40 -33 -39 -52 0 -10 4 -7 9 7 6 13 18 22 32 22
17 0 19 -3 10 -12 -17 -17 -15 -45 6 -53 25 -11 52 -13 52 -3 0 8 -3 9 -32 12
-9 1 -12 16 -11 44 2 42 0 45 -27 35z"/>
<path d="M2878 1743 c7 -3 16 -2 19 1 4 3 -2 6 -13 5 -11 0 -14 -3 -6 -6z"/>
<path d="M1611 1698 c-14 -10 -21 -18 -16 -18 12 -1 -25 -30 -38 -30 -4 0 -5
6 -1 13 5 8 4 9 -4 2 -5 -5 -12 -28 -14 -50 -3 -39 -3 -39 45 -53 46 -13 48
-12 67 10 18 22 19 22 20 3 0 -17 2 -17 10 -5 5 8 10 11 10 5 0 -5 4 -3 10 5
5 8 12 11 16 8 3 -4 -5 -21 -20 -38 -32 -38 -34 -55 -5 -40 25 14 52 72 37 81
-6 4 -4 16 7 33 14 20 15 29 6 40 -7 8 -11 23 -9 33 3 15 -4 18 -46 18 -29 0
-59 -7 -75 -17z"/>
<path d="M3210 1691 c0 -6 4 -13 10 -16 6 -3 7 1 4 9 -7 18 -14 21 -14 7z"/>
<path d="M3030 1595 c-13 -34 -13 -60 1 -109 8 -27 13 -35 19 -26 5 8 6 -14 3
-48 -6 -66 3 -78 35 -46 15 15 14 16 -8 9 -22 -7 -21 -3 12 29 20 20 31 36 23
36 -8 0 -17 -4 -20 -10 -3 -5 -11 -10 -16 -10 -6 0 -7 5 -4 10 10 17 13 120 3
126 -4 3 -8 13 -8 23 0 10 -7 24 -15 31 -12 10 -16 8 -25 -15z"/>
<path d="M1649 1533 c-3 -18 -2 -38 2 -45 13 -21 17 -5 10 37 l-7 40 -5 -32z"/>
<path d="M1195 1541 c-3 -5 -2 -12 3 -15 5 -3 9 1 9 9 0 17 -3 19 -12 6z"/>
<path d="M1744 1535 c-10 -8 -14 -15 -8 -15 6 0 17 7 24 15 16 19 9 19 -16 0z"/>
<path d="M1610 1520 c13 -8 12 -10 -2 -10 -10 0 -18 -7 -18 -15 0 -20 13 -19
33 3 18 20 13 32 -12 32 -14 0 -14 -2 -1 -10z"/>
<path d="M2711 1456 c-10 -11 -8 -16 8 -21 17 -5 20 -12 15 -33 -8 -33 -8 -31
1 -61 7 -22 9 -22 20 -7 11 14 14 15 25 1 18 -22 33 -19 20 4 -5 11 -18 22
-28 25 -16 5 -18 15 -16 56 2 42 -1 50 -16 50 -9 0 -23 -6 -29 -14z"/>
<path d="M1973 1445 c-8 -6 -19 -22 -26 -35 -7 -14 -19 -26 -27 -26 -8 -1 -18
-2 -22 -3 -3 0 2 -22 12 -48 18 -49 52 -70 81 -52 8 5 17 3 22 -4 6 -8 7 -5 3
6 -8 25 4 44 15 26 6 -10 9 -8 9 9 0 19 5 23 23 20 12 -2 29 5 40 16 21 23 21
30 2 46 -8 7 -15 22 -15 34 0 19 -5 21 -51 21 -29 0 -58 -4 -66 -10z"/>
<path d="M1170 1409 c-7 -11 -10 -23 -7 -25 2 -2 9 7 15 21 14 30 7 33 -8 4z"/>
<path d="M3303 1412 c-16 -2 -26 -14 -34 -43 -7 -21 -16 -39 -21 -39 -13 0 -9
-20 7 -36 8 -8 18 -21 22 -28 11 -19 63 -30 63 -14 0 9 3 8 10 -2 16 -24 12
-30 -15 -20 -22 9 -25 7 -25 -15 0 -30 16 -41 37 -24 13 11 18 10 34 -10 19
-23 26 -57 11 -47 -5 3 3 -19 17 -48 14 -30 27 -50 29 -46 2 5 -4 22 -12 39
-9 16 -16 39 -16 51 0 19 4 20 53 15 44 -4 48 -3 25 6 -36 14 -35 24 2 39 30
13 37 24 21 34 -5 3 -21 -4 -35 -15 -37 -29 -45 -16 -11 15 32 29 26 34 -10
10 -17 -11 -25 -26 -25 -45 0 -18 -5 -29 -14 -29 -23 0 -28 32 -8 54 11 12 22
37 26 56 l6 35 -30 -32 c-17 -19 -27 -39 -24 -48 4 -8 2 -15 -4 -15 -5 0 -13
12 -16 26 -5 20 0 32 29 61 38 38 43 54 20 73 -8 7 -15 19 -15 26 0 8 -6 15
-12 16 -27 3 -64 3 -85 0z"/>
<path d="M2970 1332 c0 -15 -2 -15 -10 -2 -5 8 -10 10 -10 4 0 -7 -12 -15 -27
-19 -16 -4 -22 -10 -15 -12 16 -6 16 -40 0 -45 -21 -7 8 -57 37 -64 14 -3 25
-13 25 -22 0 -13 3 -13 13 3 33 49 40 84 27 125 -14 41 -40 62 -40 32z"/>
<path d="M2082 1300 c-12 -11 -29 -35 -39 -53 l-17 -32 -7 25 c-6 23 -7 23 -8
3 -1 -12 3 -24 8 -27 12 -8 20 -55 10 -61 -4 -3 -14 2 -22 10 -9 8 -27 15 -41
15 -24 0 -26 -3 -20 -27 4 -16 12 -34 19 -42 11 -11 9 -18 -13 -36 -15 -13
-24 -27 -20 -31 5 -4 17 1 28 11 11 10 20 13 20 7 0 -7 4 -12 9 -12 18 0 17
45 -1 71 -14 21 -15 28 -5 32 18 7 31 -2 47 -32 10 -19 10 -25 -1 -32 -11 -7
-11 -9 -1 -9 7 0 17 -12 23 -26 17 -46 20 -20 3 29 -21 62 -14 81 27 73 35 -7
79 2 79 15 0 5 -11 7 -24 3 -43 -10 -40 16 3 33 23 9 41 22 41 30 0 19 -12 16
-54 -12 -41 -28 -49 -17 -10 14 15 12 21 21 15 21 -17 0 -61 -46 -61 -65 0
-20 -19 -19 -27 2 -4 10 2 24 18 37 24 20 54 74 46 82 -2 2 -13 -5 -25 -16z"/>
<path d="M1147 1271 c5 -20 33 -38 33 -21 0 6 -4 10 -10 10 -5 0 -10 7 -10 15
0 8 -4 15 -9 15 -5 0 -7 -9 -4 -19z"/>
<path d="M1965 1250 c-4 -6 -3 -10 2 -10 4 0 1 -5 -7 -10 -12 -7 -12 -12 -3
-21 14 -14 43 4 43 26 0 16 -27 27 -35 15z"/>
<path d="M1114 1239 c-3 -6 -2 -15 3 -20 5 -5 9 -1 10 11 2 22 -2 25 -13 9z"/>
<path d="M1110 1190 c0 -5 -7 -10 -16 -10 -9 0 -14 -6 -12 -12 3 -7 -1 -19 -9
-26 -11 -11 -10 -16 2 -28 8 -9 15 -19 15 -23 0 -11 -36 -42 -41 -36 -3 2 -5
-6 -5 -18 0 -12 4 -25 10 -29 6 -4 4 -10 -7 -14 -9 -3 -17 -10 -17 -16 0 -5 5
-6 12 -2 8 5 9 2 5 -10 -5 -12 -3 -16 5 -14 7 3 15 20 18 38 6 43 22 48 38 13
37 -80 44 -86 116 -85 29 1 46 7 58 23 26 31 23 43 -20 87 -44 44 -113 66
-129 39 -9 -15 -38 -28 -46 -20 -3 2 1 21 9 40 9 19 13 42 10 49 -3 8 -2 14 2
14 4 0 9 11 10 25 1 14 0 25 -3 25 -3 0 -5 -4 -5 -10z"/>
<path d="M2921 1158 c6 -13 18 -31 27 -41 15 -16 16 -16 34 3 11 11 18 26 15
33 -2 7 -9 2 -16 -12 l-13 -23 -19 31 c-22 36 -46 44 -28 9z"/>
<path d="M3031 1038 c-16 -166 -15 -148 -7 -218 5 -40 4 -49 -3 -32 -6 12 -13
22 -15 22 -3 0 -5 -40 -5 -89 1 -89 1 -89 29 -94 15 -3 52 -17 81 -31 44 -20
56 -23 64 -12 6 8 19 16 30 18 11 2 19 10 17 16 -1 7 7 12 18 12 12 0 35 7 52
16 33 17 30 23 -19 38 -19 6 -23 3 -24 -16 -1 -17 -3 -18 -6 -5 -2 9 -9 14
-15 11 -6 -4 -9 -1 -6 7 7 21 -92 64 -114 50 -14 -9 -18 -8 -18 2 0 8 -11 19
-25 25 -14 6 -25 16 -25 21 0 22 20 20 50 -5 17 -15 34 -24 37 -20 4 3 -2 13
-13 21 -27 20 0 19 34 -2 l27 -17 -21 25 c-12 13 -19 30 -17 37 3 6 0 12 -6
12 -6 0 -11 -7 -11 -16 0 -17 -21 -15 -27 3 -6 17 38 38 47 23 4 -6 18 -13 31
-14 13 -2 35 -6 49 -10 24 -7 24 -6 6 8 -19 15 -16 16 37 16 82 0 77 28 -6 35
-36 3 -42 7 -40 24 2 14 -3 21 -15 22 -10 0 -4 6 16 15 29 13 31 17 22 35 -13
23 -22 27 -70 32 -20 2 -41 6 -47 10 -6 4 -17 5 -25 2 -14 -6 -17 9 -21 93 -2
40 -15 72 -29 72 -2 0 -10 -64 -17 -142z m143 -117 c3 -5 -1 -12 -10 -15 -22
-9 -24 -8 -24 9 0 16 25 21 34 6z m-105 -59 c-12 -2 -26 2 -30 10 -16 24 -9
27 21 10 27 -16 28 -17 9 -20z m116 -2 c3 -5 1 -10 -4 -10 -6 0 -11 5 -11 10
0 6 2 10 4 10 3 0 8 -4 11 -10z m-90 -60 c3 -5 2 -10 -4 -10 -5 0 -13 5 -16
10 -3 6 -2 10 4 10 5 0 13 -4 16 -10z m-25 -94 c0 -8 -4 -18 -10 -21 -5 -3
-10 3 -10 14 0 12 5 21 10 21 6 0 10 -6 10 -14z m96 -36 c0 -11 -4 -20 -8 -20
-4 0 -8 9 -8 20 0 11 4 20 8 20 4 0 8 -9 8 -20z"/>
<path d="M3311 1143 c34 -43 40 -63 24 -79 -21 -21 -19 -23 15 -22 24 1 30 5
30 23 0 12 -9 34 -21 49 -17 22 -18 26 -4 26 9 0 13 5 10 10 -3 6 -20 10 -37
10 -28 0 -30 -2 -17 -17z"/>
<path d="M2885 1120 c3 -5 12 -10 19 -10 8 0 20 -8 27 -17 12 -15 12 -16 -6
-9 -25 11 -55 10 -67 -2 -6 -6 8 -12 36 -16 48 -7 52 -20 12 -36 l-21 -9 23 0
c12 -1 31 8 42 19 11 11 16 20 11 20 -5 0 -11 10 -13 22 -2 14 -15 27 -36 35
-19 8 -31 9 -27 3z"/>
<path d="M2991 1084 c0 -11 3 -14 6 -6 3 7 2 16 -1 19 -3 4 -6 -2 -5 -13z"/>
<path d="M2991 1044 c0 -11 3 -14 6 -6 3 7 2 16 -1 19 -3 4 -6 -2 -5 -13z"/>
<path d="M2987 1014 c-12 -13 -8 -20 14 -21 11 -1 19 3 17 9 -5 15 -22 21 -31
12z"/>
<path d="M1042 920 c7 -11 16 -16 21 -11 12 12 0 31 -19 31 -12 0 -12 -3 -2
-20z"/>
<path d="M1112 928 c-7 -7 -12 -18 -12 -25 0 -7 -7 -10 -15 -7 -21 9 -19 -10
5 -31 18 -16 20 -16 26 -1 10 25 26 19 22 -8 -2 -17 7 -35 26 -55 37 -38 53
-40 29 -4 -18 26 -17 27 2 19 37 -15 85 -24 85 -16 0 5 -10 16 -22 24 -12 9
-17 16 -10 16 6 0 12 5 12 10 0 6 -14 10 -31 10 l-31 0 23 20 24 19 -28 1
c-16 0 -37 -4 -47 -10 -15 -8 -20 -5 -29 20 -11 34 -12 35 -29 18z m60 -90
c-15 -15 -26 -4 -18 18 5 13 9 15 18 6 9 -9 9 -15 0 -24z"/>
<path d="M3435 800 c-4 -6 -15 -8 -26 -5 -14 5 -17 2 -13 -9 3 -8 13 -13 22
-10 15 5 14 4 -1 -6 -9 -6 -21 -9 -26 -5 -5 3 -8 -3 -7 -12 2 -9 8 -19 13 -20
15 -5 92 49 93 65 0 15 -46 16 -55 2z"/>
<path d="M2119 753 c-14 -16 -31 -40 -39 -55 -14 -30 -34 -39 -23 -11 4 11 3
14 -5 9 -14 -9 -16 -33 -3 -40 5 -4 21 -2 35 4 19 7 26 6 26 -3 0 -9 3 -8 9 1
4 7 31 24 60 37 48 23 51 26 45 52 -9 36 -7 35 -36 24 -16 -6 -29 -6 -35 0 -6
6 -19 -1 -34 -18z"/>
<path d="M3186 752 c17 -15 62 -31 68 -24 4 3 -8 12 -25 19 -35 15 -58 17 -43
5z"/>
<path d="M2711 726 c-9 -11 -8 -15 5 -20 20 -8 34 1 34 20 0 18 -24 18 -39 0z"/>
<path d="M1389 705 c-48 -26 -43 -42 22 -80 48 -28 64 -33 75 -24 8 6 12 15 9
19 -3 5 -1 10 4 12 13 4 18 42 6 43 -5 0 -20 6 -33 13 -12 7 -27 10 -32 7 -6
-3 -10 1 -10 9 0 19 -7 19 -41 1z"/>
<path d="M2813 693 c-13 -2 -26 -16 -32 -33 -8 -25 -7 -30 10 -35 24 -8 43
-41 29 -50 -5 -3 -10 -15 -10 -26 0 -11 -7 -19 -16 -19 -10 0 -12 -5 -7 -12 9
-16 4 -59 -9 -75 -12 -14 0 -17 26 -7 12 5 15 15 10 43 -5 31 -2 37 17 46 12
6 29 20 37 33 13 20 13 22 -2 22 -9 0 -16 -7 -16 -15 0 -8 -4 -15 -10 -15 -21
0 -9 31 15 40 26 10 28 14 29 71 1 31 -2 35 -24 36 -14 0 -35 -2 -47 -4z"/>
<path d="M1960 643 c-19 -2 -41 -12 -48 -21 -9 -12 -15 -13 -20 -5 -4 6 -8
-12 -9 -40 0 -27 2 -45 6 -39 4 7 12 -1 20 -18 11 -25 16 -28 32 -20 10 6 19
20 19 30 0 24 18 27 27 5 5 -14 8 -14 24 1 11 9 19 25 19 34 0 15 -29 83 -33
78 -1 0 -18 -3 -37 -5z"/>
<path d="M2400 640 c0 -5 5 -10 10 -10 6 0 10 5 10 10 0 6 -4 10 -10 10 -5 0
-10 -4 -10 -10z"/>
<path d="M3006 604 c-3 -9 -6 -35 -6 -59 0 -43 0 -43 28 -36 29 9 131 60 121
61 -4 0 -36 11 -72 25 -57 21 -66 22 -71 9z"/>
<path d="M1750 586 c0 -12 5 -16 14 -13 11 4 16 -4 19 -29 4 -34 4 -34 3 3 -1
21 -5 36 -10 35 -5 -2 -13 2 -17 10 -7 10 -9 8 -9 -6z"/>
<path d="M2204 553 c1 -46 26 -63 26 -18 0 14 -4 25 -9 25 -5 0 -12 8 -14 18
-3 9 -4 -2 -3 -25z"/>
<path d="M1637 561 c-4 -17 -3 -21 5 -13 5 5 8 16 6 23 -3 8 -7 3 -11 -10z"/>
<path d="M1856 571 c-4 -7 -5 -15 -2 -18 9 -9 19 4 14 18 -4 11 -6 11 -12 0z"/>
<path d="M2510 528 c0 -8 7 -21 15 -28 19 -16 19 -1 0 24 -12 16 -15 17 -15 4z"/>
<path d="M1843 492 c-6 -23 -7 -45 -2 -47 11 -7 22 35 17 66 -3 19 -6 15 -15
-19z"/>
<path d="M2858 523 c-10 -2 -18 -9 -18 -14 0 -13 13 -11 36 6 19 14 14 17 -18
8z"/>
<path d="M1987 493 c-20 -16 -36 -34 -37 -41 0 -7 -5 -10 -10 -7 -6 4 -8 10
-5 15 10 16 -12 20 -25 5 -27 -32 14 -52 63 -30 15 6 65 85 54 85 -2 0 -20
-12 -40 -27z"/>
<path d="M2867 494 c-15 -8 -25 -19 -22 -25 8 -12 41 5 49 26 6 18 8 18 -27
-1z"/>
<path d="M2079 438 c-2 -30 -3 -35 -6 -15 -2 15 -9 27 -14 27 -6 0 -7 5 -4 10
11 18 -7 11 -43 -16 -42 -32 -34 -39 57 -50 62 -7 63 -7 50 14 -12 19 -11 24
4 39 13 14 21 15 35 7 19 -12 29 -54 13 -54 -6 0 -11 -3 -11 -7 0 -10 353 -16
392 -8 24 6 28 11 28 41 0 32 -2 34 -32 34 -18 0 -57 -3 -86 -6 -45 -6 -50 -8
-35 -20 16 -11 13 -13 -24 -12 -46 0 -58 14 -20 21 22 4 22 4 -2 6 -13 0 -30
-7 -37 -16 -12 -17 -13 -16 -14 5 0 21 -4 22 -69 22 -39 0 -73 5 -76 10 -3 6
-28 10 -56 10 l-49 0 -1 -42z m225 0 c-6 -10 -94 -7 -94 3 0 4 22 7 49 6 27
-1 47 -5 45 -9z m16 -34 c0 -2 -17 -4 -37 -3 -29 0 -33 2 -18 8 18 7 55 4 55
-5z m110 -3 c0 -8 -70 -4 -79 4 -2 3 14 5 37 5 23 0 42 -4 42 -9z"/>
<path d="M2138 413 c7 -3 16 -2 19 1 4 3 -2 6 -13 5 -11 0 -14 -3 -6 -6z"/>
</g>
</svg>
